<?xml version="1.0" encoding="UTF-8" ?>
<!DOCTYPE score-partwise PUBLIC '-//Recordare//DTD MusicXML 2.0 Partwise//EN' 'http://www.musicxml.org/dtds/2.0/partwise.dtd'>
<score-partwise version="2.0">
 <work>
  <work-title>Drowning (feat. Kodak Black)</work-title>
 </work>
 <identification>
  <creator type="composer">A Boogie wit da Hoodie</creator>
  <creator type="transcriber">Kishan Sripada</creator>
  <encoding>
   <encoding-date>2020-12-05</encoding-date>
   <software>Guitar Pro 7.5.5</software>
   <encoder>Kishan Sripada</encoder>
   <supports attribute="new-system" element="print" type="yes" value="yes"/>
  </encoding>
 </identification>
 <defaults>
  <scaling>
   <millimeters>6.4</millimeters>
   <tenths>40</tenths>
  </scaling>
  <page-layout>
   <page-height>1850</page-height>
   <page-width>1310</page-width>
  </page-layout>
 </defaults>
 <credit>
  <credit-words justify="center" font-size="24" valign="top">Drowning (feat. Kodak Black)</credit-words>
 </credit>
 <credit>
  <credit-words justify="center" font-size="14" valign="top">A Boogie wit da Hoodie</credit-words>
 </credit>
 <credit>
  <credit-words justify="center" font-size="14" valign="top">The Bigger Artist</credit-words>
 </credit>
 <part-list>
  <score-part id="P1">
   <part-name>Steel Guitar</part-name>
   <part-abbreviation>s.guit.</part-abbreviation>
   <midi-instrument id="P1">
    <midi-channel>1</midi-channel>
    <midi-bank>1</midi-bank>
    <midi-program>26</midi-program>
    <volume>80</volume>
    <pan>0</pan>
   </midi-instrument>
  </score-part>
 </part-list>
 <part id="P1">
  <measure number="1">
   <attributes>
    <divisions>2</divisions>
    <key>
     <fifths>-4</fifths>
     <mode>minor</mode>
    </key>
    <time>
     <beats>4</beats>
     <beat-type>4</beat-type>
    </time>
    <staves>2</staves>
    <clef number="1">
     <sign>G</sign>
     <line>2</line>
    </clef>
    <clef number="2">
     <sign>TAB</sign>
     <line>5</line>
    </clef>
    <staff-details number="1">
     <staff-tuning line="1">
      <tuning-step>E</tuning-step>
      <tuning-octave>2</tuning-octave>
     </staff-tuning>
     <staff-tuning line="2">
      <tuning-step>A</tuning-step>
      <tuning-octave>2</tuning-octave>
     </staff-tuning>
     <staff-tuning line="3">
      <tuning-step>D</tuning-step>
      <tuning-octave>3</tuning-octave>
     </staff-tuning>
     <staff-tuning line="4">
      <tuning-step>G</tuning-step>
      <tuning-octave>3</tuning-octave>
     </staff-tuning>
     <staff-tuning line="5">
      <tuning-step>B</tuning-step>
      <tuning-octave>3</tuning-octave>
     </staff-tuning>
     <staff-tuning line="6">
      <tuning-step>E</tuning-step>
      <tuning-octave>4</tuning-octave>
     </staff-tuning>
     <capo>3</capo>
    </staff-details>
    <staff-details number="2">
     <staff-lines>6</staff-lines>
     <staff-tuning line="1">
      <tuning-step>E</tuning-step>
      <tuning-octave>2</tuning-octave>
     </staff-tuning>
     <staff-tuning line="2">
      <tuning-step>A</tuning-step>
      <tuning-octave>2</tuning-octave>
     </staff-tuning>
     <staff-tuning line="3">
      <tuning-step>D</tuning-step>
      <tuning-octave>3</tuning-octave>
     </staff-tuning>
     <staff-tuning line="4">
      <tuning-step>G</tuning-step>
      <tuning-octave>3</tuning-octave>
     </staff-tuning>
     <staff-tuning line="5">
      <tuning-step>B</tuning-step>
      <tuning-octave>3</tuning-octave>
     </staff-tuning>
     <staff-tuning line="6">
      <tuning-step>E</tuning-step>
      <tuning-octave>4</tuning-octave>
     </staff-tuning>
     <capo>3</capo>
    </staff-details>
    <transpose number="1">
     <diatonic>0</diatonic>
     <chromatic>0</chromatic>
     <octave-change>-1</octave-change>
    </transpose>
   </attributes>
   <harmony>
    <root>
     <root-step>A</root-step>
     <root-alter>0</root-alter>
    </root>
    <kind>minor</kind>
    <frame>
     <frame-strings>6</frame-strings>
     <frame-frets>5</frame-frets>
     <first-fret>1</first-fret>
     <frame-note>
      <string>5</string>
      <fret>0</fret>
     </frame-note>
     <frame-note>
      <string>3</string>
      <fret>2</fret>
     </frame-note>
     <frame-note>
      <string>2</string>
      <fret>1</fret>
     </frame-note>
     <frame-note>
      <string>1</string>
      <fret>0</fret>
     </frame-note>
    </frame>
   </harmony>
   <direction directive="yes">
    <direction-type>
     <metronome parentheses="no" default-y="40">
      <beat-unit>quarter</beat-unit>
      <per-minute>129</per-minute>
     </metronome>
    </direction-type>
    <sound tempo="129"/>
   </direction>
   <note>
    <pitch>
     <step>G</step>
     <octave>5</octave>
    </pitch>
    <duration>1</duration>
    <voice>1</voice>
    <type>eighth</type>
    <accidental>natural</accidental>
    <stem>up</stem>
    <notehead>normal</notehead>
    <staff>1</staff>
    <beam number="1">begin</beam>
    <notations>
     <dynamics>
      <mf/>
     </dynamics>
    </notations>
   </note>
   <note>
    <chord/>
    <pitch>
     <step>E</step>
     <alter>-1</alter>
     <octave>5</octave>
    </pitch>
    <duration>1</duration>
    <voice>1</voice>
    <type>eighth</type>
    <accidental>flat</accidental>
    <stem>up</stem>
    <notehead>normal</notehead>
    <staff>1</staff>
    <beam number="1">begin</beam>
    <notations>
     <dynamics>
      <mf/>
     </dynamics>
    </notations>
   </note>
   <note>
    <chord/>
    <pitch>
     <step>C</step>
     <octave>4</octave>
    </pitch>
    <duration>1</duration>
    <voice>1</voice>
    <type>eighth</type>
    <accidental>natural</accidental>
    <stem>up</stem>
    <notehead>normal</notehead>
    <staff>1</staff>
    <beam number="1">begin</beam>
    <notations>
     <dynamics>
      <mf/>
     </dynamics>
    </notations>
   </note>
   <note>
    <pitch>
     <step>C</step>
     <octave>5</octave>
    </pitch>
    <duration>1</duration>
    <voice>1</voice>
    <type>eighth</type>
    <accidental>natural</accidental>
    <stem>up</stem>
    <notehead>normal</notehead>
    <staff>1</staff>
    <beam number="1">end</beam>
    <notations>
     <dynamics>
      <mf/>
     </dynamics>
    </notations>
   </note>
   <note>
    <pitch>
     <step>G</step>
     <octave>5</octave>
    </pitch>
    <duration>1</duration>
    <voice>1</voice>
    <type>eighth</type>
    <stem>down</stem>
    <notehead>normal</notehead>
    <staff>1</staff>
    <beam number="1">begin</beam>
    <notations>
     <dynamics>
      <mf/>
     </dynamics>
    </notations>
   </note>
   <note>
    <chord/>
    <pitch>
     <step>E</step>
     <alter>-1</alter>
     <octave>5</octave>
    </pitch>
    <duration>1</duration>
    <voice>1</voice>
    <type>eighth</type>
    <stem>down</stem>
    <notehead>normal</notehead>
    <staff>1</staff>
    <beam number="1">begin</beam>
    <notations>
     <dynamics>
      <mf/>
     </dynamics>
    </notations>
   </note>
   <note>
    <pitch>
     <step>C</step>
     <octave>5</octave>
    </pitch>
    <duration>1</duration>
    <voice>1</voice>
    <type>eighth</type>
    <stem>down</stem>
    <notehead>normal</notehead>
    <staff>1</staff>
    <beam number="1">end</beam>
    <notations>
     <dynamics>
      <mf/>
     </dynamics>
    </notations>
   </note>
   <note>
    <pitch>
     <step>G</step>
     <octave>5</octave>
    </pitch>
    <duration>1</duration>
    <voice>1</voice>
    <type>eighth</type>
    <stem>down</stem>
    <notehead>normal</notehead>
    <staff>1</staff>
    <beam number="1">begin</beam>
    <notations>
     <dynamics>
      <mf/>
     </dynamics>
    </notations>
   </note>
   <note>
    <chord/>
    <pitch>
     <step>E</step>
     <alter>-1</alter>
     <octave>5</octave>
    </pitch>
    <duration>1</duration>
    <voice>1</voice>
    <type>eighth</type>
    <stem>down</stem>
    <notehead>normal</notehead>
    <staff>1</staff>
    <beam number="1">begin</beam>
    <notations>
     <dynamics>
      <mf/>
     </dynamics>
    </notations>
   </note>
   <note>
    <pitch>
     <step>C</step>
     <octave>5</octave>
    </pitch>
    <duration>1</duration>
    <voice>1</voice>
    <type>eighth</type>
    <stem>down</stem>
    <notehead>normal</notehead>
    <staff>1</staff>
    <beam number="1">end</beam>
    <notations>
     <dynamics>
      <mf/>
     </dynamics>
    </notations>
   </note>
   <note>
    <pitch>
     <step>G</step>
     <octave>5</octave>
    </pitch>
    <duration>1</duration>
    <voice>1</voice>
    <type>eighth</type>
    <stem>down</stem>
    <notehead>normal</notehead>
    <staff>1</staff>
    <beam number="1">begin</beam>
    <notations>
     <dynamics>
      <mf/>
     </dynamics>
    </notations>
   </note>
   <note>
    <chord/>
    <pitch>
     <step>E</step>
     <alter>-1</alter>
     <octave>5</octave>
    </pitch>
    <duration>1</duration>
    <voice>1</voice>
    <type>eighth</type>
    <stem>down</stem>
    <notehead>normal</notehead>
    <staff>1</staff>
    <beam number="1">begin</beam>
    <notations>
     <dynamics>
      <mf/>
     </dynamics>
    </notations>
   </note>
   <note>
    <pitch>
     <step>C</step>
     <octave>5</octave>
    </pitch>
    <duration>1</duration>
    <voice>1</voice>
    <type>eighth</type>
    <stem>down</stem>
    <notehead>normal</notehead>
    <staff>1</staff>
    <beam number="1">end</beam>
    <notations>
     <dynamics>
      <mf/>
     </dynamics>
    </notations>
   </note>
   <backup>
    <duration>8</duration>
   </backup>
   <harmony>
    <root>
     <root-step>A</root-step>
     <root-alter>0</root-alter>
    </root>
    <kind>minor</kind>
    <frame>
     <frame-strings>6</frame-strings>
     <frame-frets>5</frame-frets>
     <first-fret>1</first-fret>
     <frame-note>
      <string>5</string>
      <fret>0</fret>
     </frame-note>
     <frame-note>
      <string>3</string>
      <fret>2</fret>
     </frame-note>
     <frame-note>
      <string>2</string>
      <fret>1</fret>
     </frame-note>
     <frame-note>
      <string>1</string>
      <fret>0</fret>
     </frame-note>
    </frame>
   </harmony>
   <note>
    <pitch>
     <step>G</step>
     <octave>4</octave>
    </pitch>
    <duration>1</duration>
    <voice>5</voice>
    <type>eighth</type>
    <accidental>natural</accidental>
    <stem>up</stem>
    <staff>2</staff>
    <beam number="1">begin</beam>
    <notations>
     <dynamics>
      <mf/>
     </dynamics>
     <technical>
      <string>1</string>
      <fret>0</fret>
     </technical>
    </notations>
   </note>
   <note>
    <chord/>
    <pitch>
     <step>E</step>
     <alter>-1</alter>
     <octave>4</octave>
    </pitch>
    <duration>1</duration>
    <voice>5</voice>
    <type>eighth</type>
    <accidental>flat</accidental>
    <stem>up</stem>
    <staff>2</staff>
    <beam number="1">begin</beam>
    <notations>
     <dynamics>
      <mf/>
     </dynamics>
     <technical>
      <string>2</string>
      <fret>1</fret>
     </technical>
    </notations>
   </note>
   <note>
    <chord/>
    <pitch>
     <step>C</step>
     <octave>3</octave>
    </pitch>
    <duration>1</duration>
    <voice>5</voice>
    <type>eighth</type>
    <accidental>natural</accidental>
    <stem>up</stem>
    <staff>2</staff>
    <beam number="1">begin</beam>
    <notations>
     <dynamics>
      <mf/>
     </dynamics>
     <technical>
      <string>5</string>
      <fret>0</fret>
     </technical>
    </notations>
   </note>
   <note>
    <pitch>
     <step>C</step>
     <octave>4</octave>
    </pitch>
    <duration>1</duration>
    <voice>5</voice>
    <type>eighth</type>
    <accidental>natural</accidental>
    <stem>up</stem>
    <staff>2</staff>
    <beam number="1">end</beam>
    <notations>
     <dynamics>
      <mf/>
     </dynamics>
     <technical>
      <string>3</string>
      <fret>2</fret>
     </technical>
    </notations>
   </note>
   <note>
    <pitch>
     <step>G</step>
     <octave>4</octave>
    </pitch>
    <duration>1</duration>
    <voice>5</voice>
    <type>eighth</type>
    <stem>down</stem>
    <staff>2</staff>
    <beam number="1">begin</beam>
    <notations>
     <dynamics>
      <mf/>
     </dynamics>
     <technical>
      <string>1</string>
      <fret>0</fret>
     </technical>
    </notations>
   </note>
   <note>
    <chord/>
    <pitch>
     <step>E</step>
     <alter>-1</alter>
     <octave>4</octave>
    </pitch>
    <duration>1</duration>
    <voice>5</voice>
    <type>eighth</type>
    <stem>down</stem>
    <staff>2</staff>
    <beam number="1">begin</beam>
    <notations>
     <dynamics>
      <mf/>
     </dynamics>
     <technical>
      <string>2</string>
      <fret>1</fret>
     </technical>
    </notations>
   </note>
   <note>
    <pitch>
     <step>C</step>
     <octave>4</octave>
    </pitch>
    <duration>1</duration>
    <voice>5</voice>
    <type>eighth</type>
    <stem>down</stem>
    <staff>2</staff>
    <beam number="1">end</beam>
    <notations>
     <dynamics>
      <mf/>
     </dynamics>
     <technical>
      <string>3</string>
      <fret>2</fret>
     </technical>
    </notations>
   </note>
   <note>
    <pitch>
     <step>G</step>
     <octave>4</octave>
    </pitch>
    <duration>1</duration>
    <voice>5</voice>
    <type>eighth</type>
    <stem>down</stem>
    <staff>2</staff>
    <beam number="1">begin</beam>
    <notations>
     <dynamics>
      <mf/>
     </dynamics>
     <technical>
      <string>1</string>
      <fret>0</fret>
     </technical>
    </notations>
   </note>
   <note>
    <chord/>
    <pitch>
     <step>E</step>
     <alter>-1</alter>
     <octave>4</octave>
    </pitch>
    <duration>1</duration>
    <voice>5</voice>
    <type>eighth</type>
    <stem>down</stem>
    <staff>2</staff>
    <beam number="1">begin</beam>
    <notations>
     <dynamics>
      <mf/>
     </dynamics>
     <technical>
      <string>2</string>
      <fret>1</fret>
     </technical>
    </notations>
   </note>
   <note>
    <pitch>
     <step>C</step>
     <octave>4</octave>
    </pitch>
    <duration>1</duration>
    <voice>5</voice>
    <type>eighth</type>
    <stem>down</stem>
    <staff>2</staff>
    <beam number="1">end</beam>
    <notations>
     <dynamics>
      <mf/>
     </dynamics>
     <technical>
      <string>3</string>
      <fret>2</fret>
     </technical>
    </notations>
   </note>
   <note>
    <pitch>
     <step>G</step>
     <octave>4</octave>
    </pitch>
    <duration>1</duration>
    <voice>5</voice>
    <type>eighth</type>
    <stem>down</stem>
    <staff>2</staff>
    <beam number="1">begin</beam>
    <notations>
     <dynamics>
      <mf/>
     </dynamics>
     <technical>
      <string>1</string>
      <fret>0</fret>
     </technical>
    </notations>
   </note>
   <note>
    <chord/>
    <pitch>
     <step>E</step>
     <alter>-1</alter>
     <octave>4</octave>
    </pitch>
    <duration>1</duration>
    <voice>5</voice>
    <type>eighth</type>
    <stem>down</stem>
    <staff>2</staff>
    <beam number="1">begin</beam>
    <notations>
     <dynamics>
      <mf/>
     </dynamics>
     <technical>
      <string>2</string>
      <fret>1</fret>
     </technical>
    </notations>
   </note>
   <note>
    <pitch>
     <step>C</step>
     <octave>4</octave>
    </pitch>
    <duration>1</duration>
    <voice>5</voice>
    <type>eighth</type>
    <stem>down</stem>
    <staff>2</staff>
    <beam number="1">end</beam>
    <notations>
     <dynamics>
      <mf/>
     </dynamics>
     <technical>
      <string>3</string>
      <fret>2</fret>
     </technical>
    </notations>
   </note>
   <barline location="left">
    <repeat times="99" direction="forward"/>
   </barline>
  </measure>
  <measure number="2">
   <attributes>
    <staff-details number="1">
     <capo>3</capo>
    </staff-details>
    <staff-details number="2">
     <capo>3</capo>
    </staff-details>
   </attributes>
   <note>
    <pitch>
     <step>G</step>
     <octave>5</octave>
    </pitch>
    <duration>1</duration>
    <voice>1</voice>
    <type>eighth</type>
    <accidental>natural</accidental>
    <stem>up</stem>
    <notehead>normal</notehead>
    <staff>1</staff>
    <beam number="1">begin</beam>
   </note>
   <note>
    <chord/>
    <pitch>
     <step>E</step>
     <alter>-1</alter>
     <octave>5</octave>
    </pitch>
    <duration>1</duration>
    <voice>1</voice>
    <type>eighth</type>
    <accidental>flat</accidental>
    <stem>up</stem>
    <notehead>normal</notehead>
    <staff>1</staff>
    <beam number="1">begin</beam>
   </note>
   <note>
    <chord/>
    <pitch>
     <step>C</step>
     <octave>4</octave>
    </pitch>
    <duration>1</duration>
    <voice>1</voice>
    <type>eighth</type>
    <accidental>natural</accidental>
    <stem>up</stem>
    <notehead>normal</notehead>
    <staff>1</staff>
    <beam number="1">begin</beam>
   </note>
   <note>
    <pitch>
     <step>C</step>
     <octave>5</octave>
    </pitch>
    <duration>1</duration>
    <voice>1</voice>
    <type>eighth</type>
    <accidental>natural</accidental>
    <stem>up</stem>
    <notehead>normal</notehead>
    <staff>1</staff>
    <beam number="1">end</beam>
   </note>
   <note>
    <pitch>
     <step>G</step>
     <octave>5</octave>
    </pitch>
    <duration>1</duration>
    <voice>1</voice>
    <type>eighth</type>
    <stem>down</stem>
    <notehead>normal</notehead>
    <staff>1</staff>
    <beam number="1">begin</beam>
   </note>
   <note>
    <chord/>
    <pitch>
     <step>E</step>
     <alter>-1</alter>
     <octave>5</octave>
    </pitch>
    <duration>1</duration>
    <voice>1</voice>
    <type>eighth</type>
    <stem>down</stem>
    <notehead>normal</notehead>
    <staff>1</staff>
    <beam number="1">begin</beam>
   </note>
   <note>
    <pitch>
     <step>C</step>
     <octave>5</octave>
    </pitch>
    <duration>1</duration>
    <voice>1</voice>
    <type>eighth</type>
    <stem>down</stem>
    <notehead>normal</notehead>
    <staff>1</staff>
    <beam number="1">end</beam>
   </note>
   <note>
    <pitch>
     <step>A</step>
     <alter>-1</alter>
     <octave>5</octave>
    </pitch>
    <duration>1</duration>
    <voice>1</voice>
    <type>eighth</type>
    <accidental>flat</accidental>
    <stem>down</stem>
    <notehead>normal</notehead>
    <staff>1</staff>
    <beam number="1">begin</beam>
   </note>
   <note>
    <chord/>
    <pitch>
     <step>E</step>
     <alter>-1</alter>
     <octave>5</octave>
    </pitch>
    <duration>1</duration>
    <voice>1</voice>
    <type>eighth</type>
    <stem>down</stem>
    <notehead>normal</notehead>
    <staff>1</staff>
    <beam number="1">begin</beam>
   </note>
   <note>
    <chord/>
    <pitch>
     <step>A</step>
     <alter>-1</alter>
     <octave>4</octave>
    </pitch>
    <duration>1</duration>
    <voice>1</voice>
    <type>eighth</type>
    <accidental>flat</accidental>
    <stem>down</stem>
    <notehead>normal</notehead>
    <staff>1</staff>
    <beam number="1">begin</beam>
   </note>
   <note>
    <pitch>
     <step>C</step>
     <octave>5</octave>
    </pitch>
    <duration>1</duration>
    <voice>1</voice>
    <type>eighth</type>
    <stem>down</stem>
    <notehead>normal</notehead>
    <staff>1</staff>
    <beam number="1">end</beam>
   </note>
   <note>
    <pitch>
     <step>G</step>
     <octave>5</octave>
    </pitch>
    <duration>1</duration>
    <voice>1</voice>
    <type>eighth</type>
    <stem>down</stem>
    <notehead>normal</notehead>
    <staff>1</staff>
    <beam number="1">begin</beam>
   </note>
   <note>
    <chord/>
    <pitch>
     <step>E</step>
     <alter>-1</alter>
     <octave>5</octave>
    </pitch>
    <duration>1</duration>
    <voice>1</voice>
    <type>eighth</type>
    <stem>down</stem>
    <notehead>normal</notehead>
    <staff>1</staff>
    <beam number="1">begin</beam>
   </note>
   <note>
    <chord/>
    <pitch>
     <step>G</step>
     <octave>4</octave>
    </pitch>
    <duration>1</duration>
    <voice>1</voice>
    <type>eighth</type>
    <accidental>natural</accidental>
    <stem>down</stem>
    <notehead>normal</notehead>
    <staff>1</staff>
    <beam number="1">begin</beam>
   </note>
   <note>
    <pitch>
     <step>C</step>
     <octave>5</octave>
    </pitch>
    <duration>1</duration>
    <voice>1</voice>
    <type>eighth</type>
    <stem>down</stem>
    <notehead>normal</notehead>
    <staff>1</staff>
    <beam number="1">end</beam>
   </note>
   <backup>
    <duration>8</duration>
   </backup>
   <note>
    <pitch>
     <step>G</step>
     <octave>4</octave>
    </pitch>
    <duration>1</duration>
    <voice>5</voice>
    <type>eighth</type>
    <accidental>natural</accidental>
    <stem>up</stem>
    <staff>2</staff>
    <beam number="1">begin</beam>
    <notations>
     <technical>
      <string>1</string>
      <fret>0</fret>
     </technical>
    </notations>
   </note>
   <note>
    <chord/>
    <pitch>
     <step>E</step>
     <alter>-1</alter>
     <octave>4</octave>
    </pitch>
    <duration>1</duration>
    <voice>5</voice>
    <type>eighth</type>
    <accidental>flat</accidental>
    <stem>up</stem>
    <staff>2</staff>
    <beam number="1">begin</beam>
    <notations>
     <technical>
      <string>2</string>
      <fret>1</fret>
     </technical>
    </notations>
   </note>
   <note>
    <chord/>
    <pitch>
     <step>C</step>
     <octave>3</octave>
    </pitch>
    <duration>1</duration>
    <voice>5</voice>
    <type>eighth</type>
    <accidental>natural</accidental>
    <stem>up</stem>
    <staff>2</staff>
    <beam number="1">begin</beam>
    <notations>
     <technical>
      <string>5</string>
      <fret>0</fret>
     </technical>
    </notations>
   </note>
   <note>
    <pitch>
     <step>C</step>
     <octave>4</octave>
    </pitch>
    <duration>1</duration>
    <voice>5</voice>
    <type>eighth</type>
    <accidental>natural</accidental>
    <stem>up</stem>
    <staff>2</staff>
    <beam number="1">end</beam>
    <notations>
     <technical>
      <string>3</string>
      <fret>2</fret>
     </technical>
    </notations>
   </note>
   <note>
    <pitch>
     <step>G</step>
     <octave>4</octave>
    </pitch>
    <duration>1</duration>
    <voice>5</voice>
    <type>eighth</type>
    <stem>down</stem>
    <staff>2</staff>
    <beam number="1">begin</beam>
    <notations>
     <technical>
      <string>1</string>
      <fret>0</fret>
     </technical>
    </notations>
   </note>
   <note>
    <chord/>
    <pitch>
     <step>E</step>
     <alter>-1</alter>
     <octave>4</octave>
    </pitch>
    <duration>1</duration>
    <voice>5</voice>
    <type>eighth</type>
    <stem>down</stem>
    <staff>2</staff>
    <beam number="1">begin</beam>
    <notations>
     <technical>
      <string>2</string>
      <fret>1</fret>
     </technical>
    </notations>
   </note>
   <note>
    <pitch>
     <step>C</step>
     <octave>4</octave>
    </pitch>
    <duration>1</duration>
    <voice>5</voice>
    <type>eighth</type>
    <stem>down</stem>
    <staff>2</staff>
    <beam number="1">end</beam>
    <notations>
     <technical>
      <string>3</string>
      <fret>2</fret>
     </technical>
    </notations>
   </note>
   <note>
    <pitch>
     <step>A</step>
     <alter>-1</alter>
     <octave>4</octave>
    </pitch>
    <duration>1</duration>
    <voice>5</voice>
    <type>eighth</type>
    <accidental>flat</accidental>
    <stem>down</stem>
    <staff>2</staff>
    <beam number="1">begin</beam>
    <notations>
     <technical>
      <string>1</string>
      <fret>1</fret>
     </technical>
    </notations>
   </note>
   <note>
    <chord/>
    <pitch>
     <step>E</step>
     <alter>-1</alter>
     <octave>4</octave>
    </pitch>
    <duration>1</duration>
    <voice>5</voice>
    <type>eighth</type>
    <stem>down</stem>
    <staff>2</staff>
    <beam number="1">begin</beam>
    <notations>
     <technical>
      <string>2</string>
      <fret>1</fret>
     </technical>
    </notations>
   </note>
   <note>
    <chord/>
    <pitch>
     <step>A</step>
     <alter>-1</alter>
     <octave>3</octave>
    </pitch>
    <duration>1</duration>
    <voice>5</voice>
    <type>eighth</type>
    <accidental>flat</accidental>
    <stem>down</stem>
    <staff>2</staff>
    <beam number="1">begin</beam>
    <notations>
     <technical>
      <string>4</string>
      <fret>3</fret>
     </technical>
    </notations>
   </note>
   <note>
    <pitch>
     <step>C</step>
     <octave>4</octave>
    </pitch>
    <duration>1</duration>
    <voice>5</voice>
    <type>eighth</type>
    <stem>down</stem>
    <staff>2</staff>
    <beam number="1">end</beam>
    <notations>
     <technical>
      <string>3</string>
      <fret>2</fret>
     </technical>
    </notations>
   </note>
   <note>
    <pitch>
     <step>G</step>
     <octave>4</octave>
    </pitch>
    <duration>1</duration>
    <voice>5</voice>
    <type>eighth</type>
    <stem>down</stem>
    <staff>2</staff>
    <beam number="1">begin</beam>
    <notations>
     <technical>
      <string>1</string>
      <fret>0</fret>
     </technical>
    </notations>
   </note>
   <note>
    <chord/>
    <pitch>
     <step>E</step>
     <alter>-1</alter>
     <octave>4</octave>
    </pitch>
    <duration>1</duration>
    <voice>5</voice>
    <type>eighth</type>
    <stem>down</stem>
    <staff>2</staff>
    <beam number="1">begin</beam>
    <notations>
     <technical>
      <string>2</string>
      <fret>1</fret>
     </technical>
    </notations>
   </note>
   <note>
    <chord/>
    <pitch>
     <step>G</step>
     <octave>3</octave>
    </pitch>
    <duration>1</duration>
    <voice>5</voice>
    <type>eighth</type>
    <accidental>natural</accidental>
    <stem>down</stem>
    <staff>2</staff>
    <beam number="1">begin</beam>
    <notations>
     <technical>
      <string>4</string>
      <fret>2</fret>
     </technical>
    </notations>
   </note>
   <note>
    <pitch>
     <step>C</step>
     <octave>4</octave>
    </pitch>
    <duration>1</duration>
    <voice>5</voice>
    <type>eighth</type>
    <stem>down</stem>
    <staff>2</staff>
    <beam number="1">end</beam>
    <notations>
     <technical>
      <string>3</string>
      <fret>2</fret>
     </technical>
    </notations>
   </note>
  </measure>
  <measure number="3">
   <attributes>
    <staff-details number="1">
     <capo>3</capo>
    </staff-details>
    <staff-details number="2">
     <capo>3</capo>
    </staff-details>
   </attributes>
   <harmony>
    <root>
     <root-step>E</root-step>
     <root-alter>0</root-alter>
    </root>
    <kind>major</kind>
    <frame>
     <frame-strings>6</frame-strings>
     <frame-frets>5</frame-frets>
     <first-fret>1</first-fret>
     <frame-note>
      <string>4</string>
      <fret>2</fret>
     </frame-note>
     <frame-note>
      <string>3</string>
      <fret>1</fret>
     </frame-note>
     <frame-note>
      <string>2</string>
      <fret>0</fret>
     </frame-note>
     <frame-note>
      <string>1</string>
      <fret>0</fret>
     </frame-note>
    </frame>
   </harmony>
   <note>
    <pitch>
     <step>G</step>
     <octave>5</octave>
    </pitch>
    <duration>1</duration>
    <voice>1</voice>
    <type>eighth</type>
    <accidental>natural</accidental>
    <stem>down</stem>
    <notehead>normal</notehead>
    <staff>1</staff>
    <beam number="1">begin</beam>
   </note>
   <note>
    <chord/>
    <pitch>
     <step>D</step>
     <octave>5</octave>
    </pitch>
    <duration>1</duration>
    <voice>1</voice>
    <type>eighth</type>
    <accidental>natural</accidental>
    <stem>down</stem>
    <notehead>normal</notehead>
    <staff>1</staff>
    <beam number="1">begin</beam>
   </note>
   <note>
    <chord/>
    <pitch>
     <step>G</step>
     <octave>4</octave>
    </pitch>
    <duration>1</duration>
    <voice>1</voice>
    <type>eighth</type>
    <accidental>natural</accidental>
    <stem>down</stem>
    <notehead>normal</notehead>
    <staff>1</staff>
    <beam number="1">begin</beam>
   </note>
   <note>
    <pitch>
     <step>B</step>
     <octave>4</octave>
    </pitch>
    <duration>1</duration>
    <voice>1</voice>
    <type>eighth</type>
    <stem>down</stem>
    <notehead>normal</notehead>
    <staff>1</staff>
    <beam number="1">end</beam>
   </note>
   <note>
    <pitch>
     <step>G</step>
     <octave>5</octave>
    </pitch>
    <duration>1</duration>
    <voice>1</voice>
    <type>eighth</type>
    <stem>down</stem>
    <notehead>normal</notehead>
    <staff>1</staff>
    <beam number="1">begin</beam>
   </note>
   <note>
    <chord/>
    <pitch>
     <step>D</step>
     <octave>5</octave>
    </pitch>
    <duration>1</duration>
    <voice>1</voice>
    <type>eighth</type>
    <stem>down</stem>
    <notehead>normal</notehead>
    <staff>1</staff>
    <beam number="1">begin</beam>
   </note>
   <note>
    <pitch>
     <step>B</step>
     <octave>4</octave>
    </pitch>
    <duration>1</duration>
    <voice>1</voice>
    <type>eighth</type>
    <stem>down</stem>
    <notehead>normal</notehead>
    <staff>1</staff>
    <beam number="1">end</beam>
   </note>
   <note>
    <pitch>
     <step>G</step>
     <octave>5</octave>
    </pitch>
    <duration>1</duration>
    <voice>1</voice>
    <type>eighth</type>
    <stem>down</stem>
    <notehead>normal</notehead>
    <staff>1</staff>
    <beam number="1">begin</beam>
   </note>
   <note>
    <chord/>
    <pitch>
     <step>D</step>
     <octave>5</octave>
    </pitch>
    <duration>1</duration>
    <voice>1</voice>
    <type>eighth</type>
    <stem>down</stem>
    <notehead>normal</notehead>
    <staff>1</staff>
    <beam number="1">begin</beam>
   </note>
   <note>
    <pitch>
     <step>B</step>
     <octave>4</octave>
    </pitch>
    <duration>1</duration>
    <voice>1</voice>
    <type>eighth</type>
    <stem>down</stem>
    <notehead>normal</notehead>
    <staff>1</staff>
    <beam number="1">end</beam>
   </note>
   <note>
    <pitch>
     <step>G</step>
     <octave>5</octave>
    </pitch>
    <duration>1</duration>
    <voice>1</voice>
    <type>eighth</type>
    <stem>down</stem>
    <notehead>normal</notehead>
    <staff>1</staff>
    <beam number="1">begin</beam>
   </note>
   <note>
    <chord/>
    <pitch>
     <step>D</step>
     <octave>5</octave>
    </pitch>
    <duration>1</duration>
    <voice>1</voice>
    <type>eighth</type>
    <stem>down</stem>
    <notehead>normal</notehead>
    <staff>1</staff>
    <beam number="1">begin</beam>
   </note>
   <note>
    <pitch>
     <step>B</step>
     <octave>4</octave>
    </pitch>
    <duration>1</duration>
    <voice>1</voice>
    <type>eighth</type>
    <stem>down</stem>
    <notehead>normal</notehead>
    <staff>1</staff>
    <beam number="1">end</beam>
   </note>
   <backup>
    <duration>8</duration>
   </backup>
   <harmony>
    <root>
     <root-step>E</root-step>
     <root-alter>0</root-alter>
    </root>
    <kind>major</kind>
    <frame>
     <frame-strings>6</frame-strings>
     <frame-frets>5</frame-frets>
     <first-fret>1</first-fret>
     <frame-note>
      <string>4</string>
      <fret>2</fret>
     </frame-note>
     <frame-note>
      <string>3</string>
      <fret>1</fret>
     </frame-note>
     <frame-note>
      <string>2</string>
      <fret>0</fret>
     </frame-note>
     <frame-note>
      <string>1</string>
      <fret>0</fret>
     </frame-note>
    </frame>
   </harmony>
   <note>
    <pitch>
     <step>G</step>
     <octave>4</octave>
    </pitch>
    <duration>1</duration>
    <voice>5</voice>
    <type>eighth</type>
    <accidental>natural</accidental>
    <stem>down</stem>
    <staff>2</staff>
    <beam number="1">begin</beam>
    <notations>
     <technical>
      <string>1</string>
      <fret>0</fret>
     </technical>
    </notations>
   </note>
   <note>
    <chord/>
    <pitch>
     <step>D</step>
     <octave>4</octave>
    </pitch>
    <duration>1</duration>
    <voice>5</voice>
    <type>eighth</type>
    <accidental>natural</accidental>
    <stem>down</stem>
    <staff>2</staff>
    <beam number="1">begin</beam>
    <notations>
     <technical>
      <string>2</string>
      <fret>0</fret>
     </technical>
    </notations>
   </note>
   <note>
    <chord/>
    <pitch>
     <step>G</step>
     <octave>3</octave>
    </pitch>
    <duration>1</duration>
    <voice>5</voice>
    <type>eighth</type>
    <accidental>natural</accidental>
    <stem>down</stem>
    <staff>2</staff>
    <beam number="1">begin</beam>
    <notations>
     <technical>
      <string>4</string>
      <fret>2</fret>
     </technical>
    </notations>
   </note>
   <note>
    <pitch>
     <step>B</step>
     <octave>3</octave>
    </pitch>
    <duration>1</duration>
    <voice>5</voice>
    <type>eighth</type>
    <stem>down</stem>
    <staff>2</staff>
    <beam number="1">end</beam>
    <notations>
     <technical>
      <string>3</string>
      <fret>1</fret>
     </technical>
    </notations>
   </note>
   <note>
    <pitch>
     <step>G</step>
     <octave>4</octave>
    </pitch>
    <duration>1</duration>
    <voice>5</voice>
    <type>eighth</type>
    <stem>down</stem>
    <staff>2</staff>
    <beam number="1">begin</beam>
    <notations>
     <technical>
      <string>1</string>
      <fret>0</fret>
     </technical>
    </notations>
   </note>
   <note>
    <chord/>
    <pitch>
     <step>D</step>
     <octave>4</octave>
    </pitch>
    <duration>1</duration>
    <voice>5</voice>
    <type>eighth</type>
    <stem>down</stem>
    <staff>2</staff>
    <beam number="1">begin</beam>
    <notations>
     <technical>
      <string>2</string>
      <fret>0</fret>
     </technical>
    </notations>
   </note>
   <note>
    <pitch>
     <step>B</step>
     <octave>3</octave>
    </pitch>
    <duration>1</duration>
    <voice>5</voice>
    <type>eighth</type>
    <stem>down</stem>
    <staff>2</staff>
    <beam number="1">end</beam>
    <notations>
     <technical>
      <string>3</string>
      <fret>1</fret>
     </technical>
    </notations>
   </note>
   <note>
    <pitch>
     <step>G</step>
     <octave>4</octave>
    </pitch>
    <duration>1</duration>
    <voice>5</voice>
    <type>eighth</type>
    <stem>down</stem>
    <staff>2</staff>
    <beam number="1">begin</beam>
    <notations>
     <technical>
      <string>1</string>
      <fret>0</fret>
     </technical>
    </notations>
   </note>
   <note>
    <chord/>
    <pitch>
     <step>D</step>
     <octave>4</octave>
    </pitch>
    <duration>1</duration>
    <voice>5</voice>
    <type>eighth</type>
    <stem>down</stem>
    <staff>2</staff>
    <beam number="1">begin</beam>
    <notations>
     <technical>
      <string>2</string>
      <fret>0</fret>
     </technical>
    </notations>
   </note>
   <note>
    <pitch>
     <step>B</step>
     <octave>3</octave>
    </pitch>
    <duration>1</duration>
    <voice>5</voice>
    <type>eighth</type>
    <stem>down</stem>
    <staff>2</staff>
    <beam number="1">end</beam>
    <notations>
     <technical>
      <string>3</string>
      <fret>1</fret>
     </technical>
    </notations>
   </note>
   <note>
    <pitch>
     <step>G</step>
     <octave>4</octave>
    </pitch>
    <duration>1</duration>
    <voice>5</voice>
    <type>eighth</type>
    <stem>down</stem>
    <staff>2</staff>
    <beam number="1">begin</beam>
    <notations>
     <technical>
      <string>1</string>
      <fret>0</fret>
     </technical>
    </notations>
   </note>
   <note>
    <chord/>
    <pitch>
     <step>D</step>
     <octave>4</octave>
    </pitch>
    <duration>1</duration>
    <voice>5</voice>
    <type>eighth</type>
    <stem>down</stem>
    <staff>2</staff>
    <beam number="1">begin</beam>
    <notations>
     <technical>
      <string>2</string>
      <fret>0</fret>
     </technical>
    </notations>
   </note>
   <note>
    <pitch>
     <step>B</step>
     <octave>3</octave>
    </pitch>
    <duration>1</duration>
    <voice>5</voice>
    <type>eighth</type>
    <stem>down</stem>
    <staff>2</staff>
    <beam number="1">end</beam>
    <notations>
     <technical>
      <string>3</string>
      <fret>1</fret>
     </technical>
    </notations>
   </note>
  </measure>
  <measure number="4">
   <attributes>
    <staff-details number="1">
     <capo>3</capo>
    </staff-details>
    <staff-details number="2">
     <capo>3</capo>
    </staff-details>
   </attributes>
   <note>
    <pitch>
     <step>G</step>
     <octave>5</octave>
    </pitch>
    <duration>1</duration>
    <voice>1</voice>
    <type>eighth</type>
    <accidental>natural</accidental>
    <stem>down</stem>
    <notehead>normal</notehead>
    <staff>1</staff>
    <beam number="1">begin</beam>
   </note>
   <note>
    <chord/>
    <pitch>
     <step>D</step>
     <octave>5</octave>
    </pitch>
    <duration>1</duration>
    <voice>1</voice>
    <type>eighth</type>
    <accidental>natural</accidental>
    <stem>down</stem>
    <notehead>normal</notehead>
    <staff>1</staff>
    <beam number="1">begin</beam>
   </note>
   <note>
    <chord/>
    <pitch>
     <step>G</step>
     <octave>4</octave>
    </pitch>
    <duration>1</duration>
    <voice>1</voice>
    <type>eighth</type>
    <accidental>natural</accidental>
    <stem>down</stem>
    <notehead>normal</notehead>
    <staff>1</staff>
    <beam number="1">begin</beam>
   </note>
   <note>
    <pitch>
     <step>B</step>
     <octave>4</octave>
    </pitch>
    <duration>1</duration>
    <voice>1</voice>
    <type>eighth</type>
    <stem>down</stem>
    <notehead>normal</notehead>
    <staff>1</staff>
    <beam number="1">end</beam>
   </note>
   <note>
    <pitch>
     <step>G</step>
     <octave>5</octave>
    </pitch>
    <duration>1</duration>
    <voice>1</voice>
    <type>eighth</type>
    <stem>down</stem>
    <notehead>normal</notehead>
    <staff>1</staff>
    <beam number="1">begin</beam>
   </note>
   <note>
    <chord/>
    <pitch>
     <step>D</step>
     <octave>5</octave>
    </pitch>
    <duration>1</duration>
    <voice>1</voice>
    <type>eighth</type>
    <stem>down</stem>
    <notehead>normal</notehead>
    <staff>1</staff>
    <beam number="1">begin</beam>
   </note>
   <note>
    <pitch>
     <step>B</step>
     <octave>4</octave>
    </pitch>
    <duration>1</duration>
    <voice>1</voice>
    <type>eighth</type>
    <stem>down</stem>
    <notehead>normal</notehead>
    <staff>1</staff>
    <beam number="1">end</beam>
   </note>
   <note>
    <pitch>
     <step>A</step>
     <alter>-1</alter>
     <octave>5</octave>
    </pitch>
    <duration>1</duration>
    <voice>1</voice>
    <type>eighth</type>
    <accidental>flat</accidental>
    <stem>down</stem>
    <notehead>normal</notehead>
    <staff>1</staff>
    <beam number="1">begin</beam>
   </note>
   <note>
    <chord/>
    <pitch>
     <step>D</step>
     <octave>5</octave>
    </pitch>
    <duration>1</duration>
    <voice>1</voice>
    <type>eighth</type>
    <stem>down</stem>
    <notehead>normal</notehead>
    <staff>1</staff>
    <beam number="1">begin</beam>
   </note>
   <note>
    <chord/>
    <pitch>
     <step>A</step>
     <alter>-1</alter>
     <octave>4</octave>
    </pitch>
    <duration>1</duration>
    <voice>1</voice>
    <type>eighth</type>
    <accidental>flat</accidental>
    <stem>down</stem>
    <notehead>normal</notehead>
    <staff>1</staff>
    <beam number="1">begin</beam>
   </note>
   <note>
    <pitch>
     <step>B</step>
     <octave>4</octave>
    </pitch>
    <duration>1</duration>
    <voice>1</voice>
    <type>eighth</type>
    <stem>down</stem>
    <notehead>normal</notehead>
    <staff>1</staff>
    <beam number="1">end</beam>
   </note>
   <note>
    <pitch>
     <step>G</step>
     <octave>4</octave>
    </pitch>
    <duration>1</duration>
    <voice>1</voice>
    <type>eighth</type>
    <stem>down</stem>
    <notehead>normal</notehead>
    <staff>1</staff>
    <beam number="1">begin</beam>
   </note>
   <note>
    <chord/>
    <pitch>
     <step>D</step>
     <octave>5</octave>
    </pitch>
    <duration>1</duration>
    <voice>1</voice>
    <type>eighth</type>
    <stem>down</stem>
    <notehead>normal</notehead>
    <staff>1</staff>
    <beam number="1">begin</beam>
   </note>
   <note>
    <chord/>
    <pitch>
     <step>G</step>
     <octave>5</octave>
    </pitch>
    <duration>1</duration>
    <voice>1</voice>
    <type>eighth</type>
    <stem>down</stem>
    <notehead>normal</notehead>
    <staff>1</staff>
    <beam number="1">begin</beam>
   </note>
   <note>
    <pitch>
     <step>B</step>
     <octave>4</octave>
    </pitch>
    <duration>1</duration>
    <voice>1</voice>
    <type>eighth</type>
    <stem>down</stem>
    <notehead>normal</notehead>
    <staff>1</staff>
    <beam number="1">end</beam>
   </note>
   <backup>
    <duration>8</duration>
   </backup>
   <note>
    <pitch>
     <step>G</step>
     <octave>4</octave>
    </pitch>
    <duration>1</duration>
    <voice>5</voice>
    <type>eighth</type>
    <accidental>natural</accidental>
    <stem>down</stem>
    <staff>2</staff>
    <beam number="1">begin</beam>
    <notations>
     <technical>
      <string>1</string>
      <fret>0</fret>
     </technical>
    </notations>
   </note>
   <note>
    <chord/>
    <pitch>
     <step>D</step>
     <octave>4</octave>
    </pitch>
    <duration>1</duration>
    <voice>5</voice>
    <type>eighth</type>
    <accidental>natural</accidental>
    <stem>down</stem>
    <staff>2</staff>
    <beam number="1">begin</beam>
    <notations>
     <technical>
      <string>2</string>
      <fret>0</fret>
     </technical>
    </notations>
   </note>
   <note>
    <chord/>
    <pitch>
     <step>G</step>
     <octave>3</octave>
    </pitch>
    <duration>1</duration>
    <voice>5</voice>
    <type>eighth</type>
    <accidental>natural</accidental>
    <stem>down</stem>
    <staff>2</staff>
    <beam number="1">begin</beam>
    <notations>
     <technical>
      <string>4</string>
      <fret>2</fret>
     </technical>
    </notations>
   </note>
   <note>
    <pitch>
     <step>B</step>
     <octave>3</octave>
    </pitch>
    <duration>1</duration>
    <voice>5</voice>
    <type>eighth</type>
    <stem>down</stem>
    <staff>2</staff>
    <beam number="1">end</beam>
    <notations>
     <technical>
      <string>3</string>
      <fret>1</fret>
     </technical>
    </notations>
   </note>
   <note>
    <pitch>
     <step>G</step>
     <octave>4</octave>
    </pitch>
    <duration>1</duration>
    <voice>5</voice>
    <type>eighth</type>
    <stem>down</stem>
    <staff>2</staff>
    <beam number="1">begin</beam>
    <notations>
     <technical>
      <string>1</string>
      <fret>0</fret>
     </technical>
    </notations>
   </note>
   <note>
    <chord/>
    <pitch>
     <step>D</step>
     <octave>4</octave>
    </pitch>
    <duration>1</duration>
    <voice>5</voice>
    <type>eighth</type>
    <stem>down</stem>
    <staff>2</staff>
    <beam number="1">begin</beam>
    <notations>
     <technical>
      <string>2</string>
      <fret>0</fret>
     </technical>
    </notations>
   </note>
   <note>
    <pitch>
     <step>B</step>
     <octave>3</octave>
    </pitch>
    <duration>1</duration>
    <voice>5</voice>
    <type>eighth</type>
    <stem>down</stem>
    <staff>2</staff>
    <beam number="1">end</beam>
    <notations>
     <technical>
      <string>3</string>
      <fret>1</fret>
     </technical>
    </notations>
   </note>
   <note>
    <pitch>
     <step>A</step>
     <alter>-1</alter>
     <octave>4</octave>
    </pitch>
    <duration>1</duration>
    <voice>5</voice>
    <type>eighth</type>
    <accidental>flat</accidental>
    <stem>down</stem>
    <staff>2</staff>
    <beam number="1">begin</beam>
    <notations>
     <technical>
      <string>1</string>
      <fret>1</fret>
     </technical>
    </notations>
   </note>
   <note>
    <chord/>
    <pitch>
     <step>D</step>
     <octave>4</octave>
    </pitch>
    <duration>1</duration>
    <voice>5</voice>
    <type>eighth</type>
    <stem>down</stem>
    <staff>2</staff>
    <beam number="1">begin</beam>
    <notations>
     <technical>
      <string>2</string>
      <fret>0</fret>
     </technical>
    </notations>
   </note>
   <note>
    <chord/>
    <pitch>
     <step>A</step>
     <alter>-1</alter>
     <octave>3</octave>
    </pitch>
    <duration>1</duration>
    <voice>5</voice>
    <type>eighth</type>
    <accidental>flat</accidental>
    <stem>down</stem>
    <staff>2</staff>
    <beam number="1">begin</beam>
    <notations>
     <technical>
      <string>4</string>
      <fret>3</fret>
     </technical>
    </notations>
   </note>
   <note>
    <pitch>
     <step>B</step>
     <octave>3</octave>
    </pitch>
    <duration>1</duration>
    <voice>5</voice>
    <type>eighth</type>
    <stem>down</stem>
    <staff>2</staff>
    <beam number="1">end</beam>
    <notations>
     <technical>
      <string>3</string>
      <fret>1</fret>
     </technical>
    </notations>
   </note>
   <note>
    <pitch>
     <step>G</step>
     <octave>3</octave>
    </pitch>
    <duration>1</duration>
    <voice>5</voice>
    <type>eighth</type>
    <stem>down</stem>
    <staff>2</staff>
    <beam number="1">begin</beam>
    <notations>
     <technical>
      <string>4</string>
      <fret>2</fret>
     </technical>
    </notations>
   </note>
   <note>
    <chord/>
    <pitch>
     <step>D</step>
     <octave>4</octave>
    </pitch>
    <duration>1</duration>
    <voice>5</voice>
    <type>eighth</type>
    <stem>down</stem>
    <staff>2</staff>
    <beam number="1">begin</beam>
    <notations>
     <technical>
      <string>2</string>
      <fret>0</fret>
     </technical>
    </notations>
   </note>
   <note>
    <chord/>
    <pitch>
     <step>G</step>
     <octave>4</octave>
    </pitch>
    <duration>1</duration>
    <voice>5</voice>
    <type>eighth</type>
    <stem>down</stem>
    <staff>2</staff>
    <beam number="1">begin</beam>
    <notations>
     <technical>
      <string>1</string>
      <fret>0</fret>
     </technical>
    </notations>
   </note>
   <note>
    <pitch>
     <step>B</step>
     <octave>3</octave>
    </pitch>
    <duration>1</duration>
    <voice>5</voice>
    <type>eighth</type>
    <stem>down</stem>
    <staff>2</staff>
    <beam number="1">end</beam>
    <notations>
     <technical>
      <string>3</string>
      <fret>1</fret>
     </technical>
    </notations>
   </note>
  </measure>
  <measure number="5">
   <print new-system="yes"/>
   <attributes>
    <staff-details number="1">
     <capo>3</capo>
    </staff-details>
    <staff-details number="2">
     <capo>3</capo>
    </staff-details>
   </attributes>
   <harmony>
    <root>
     <root-step>E</root-step>
     <root-alter>0</root-alter>
    </root>
    <kind>diminished</kind>
    <bass>
     <bass-step>G</bass-step>
     <bass-alter>0</bass-alter>
    </bass>
    <frame>
     <frame-strings>6</frame-strings>
     <frame-frets>5</frame-frets>
     <first-fret>1</first-fret>
     <frame-note>
      <string>4</string>
      <fret>5</fret>
     </frame-note>
     <frame-note>
      <string>3</string>
      <fret>3</fret>
     </frame-note>
     <frame-note>
      <string>2</string>
      <fret>5</fret>
     </frame-note>
    </frame>
   </harmony>
   <note>
    <pitch>
     <step>D</step>
     <alter>-1</alter>
     <octave>5</octave>
    </pitch>
    <duration>1</duration>
    <voice>1</voice>
    <type>eighth</type>
    <stem>down</stem>
    <notehead>normal</notehead>
    <staff>1</staff>
    <beam number="1">begin</beam>
   </note>
   <note>
    <chord/>
    <pitch>
     <step>G</step>
     <octave>5</octave>
    </pitch>
    <duration>1</duration>
    <voice>1</voice>
    <type>eighth</type>
    <accidental>natural</accidental>
    <stem>down</stem>
    <notehead>normal</notehead>
    <staff>1</staff>
    <beam number="1">begin</beam>
   </note>
   <note>
    <pitch>
     <step>B</step>
     <alter>-1</alter>
     <octave>4</octave>
    </pitch>
    <duration>1</duration>
    <voice>1</voice>
    <type>eighth</type>
    <accidental>flat</accidental>
    <stem>down</stem>
    <notehead>normal</notehead>
    <staff>1</staff>
    <beam number="1">end</beam>
   </note>
   <note>
    <pitch>
     <step>D</step>
     <alter>-1</alter>
     <octave>5</octave>
    </pitch>
    <duration>1</duration>
    <voice>1</voice>
    <type>eighth</type>
    <stem>down</stem>
    <notehead>normal</notehead>
    <staff>1</staff>
    <beam number="1">begin</beam>
   </note>
   <note>
    <chord/>
    <pitch>
     <step>G</step>
     <octave>5</octave>
    </pitch>
    <duration>1</duration>
    <voice>1</voice>
    <type>eighth</type>
    <stem>down</stem>
    <notehead>normal</notehead>
    <staff>1</staff>
    <beam number="1">begin</beam>
   </note>
   <note>
    <pitch>
     <step>B</step>
     <alter>-1</alter>
     <octave>4</octave>
    </pitch>
    <duration>1</duration>
    <voice>1</voice>
    <type>eighth</type>
    <stem>down</stem>
    <notehead>normal</notehead>
    <staff>1</staff>
    <beam number="1">end</beam>
   </note>
   <note>
    <pitch>
     <step>D</step>
     <alter>-1</alter>
     <octave>5</octave>
    </pitch>
    <duration>1</duration>
    <voice>1</voice>
    <type>eighth</type>
    <stem>down</stem>
    <notehead>normal</notehead>
    <staff>1</staff>
    <beam number="1">begin</beam>
   </note>
   <note>
    <chord/>
    <pitch>
     <step>G</step>
     <octave>5</octave>
    </pitch>
    <duration>1</duration>
    <voice>1</voice>
    <type>eighth</type>
    <stem>down</stem>
    <notehead>normal</notehead>
    <staff>1</staff>
    <beam number="1">begin</beam>
   </note>
   <note>
    <pitch>
     <step>B</step>
     <alter>-1</alter>
     <octave>4</octave>
    </pitch>
    <duration>1</duration>
    <voice>1</voice>
    <type>eighth</type>
    <stem>down</stem>
    <notehead>normal</notehead>
    <staff>1</staff>
    <beam number="1">end</beam>
   </note>
   <note>
    <pitch>
     <step>D</step>
     <alter>-1</alter>
     <octave>5</octave>
    </pitch>
    <duration>1</duration>
    <voice>1</voice>
    <type>eighth</type>
    <stem>down</stem>
    <notehead>normal</notehead>
    <staff>1</staff>
    <beam number="1">begin</beam>
   </note>
   <note>
    <chord/>
    <pitch>
     <step>G</step>
     <octave>5</octave>
    </pitch>
    <duration>1</duration>
    <voice>1</voice>
    <type>eighth</type>
    <stem>down</stem>
    <notehead>normal</notehead>
    <staff>1</staff>
    <beam number="1">begin</beam>
   </note>
   <note>
    <pitch>
     <step>B</step>
     <alter>-1</alter>
     <octave>4</octave>
    </pitch>
    <duration>1</duration>
    <voice>1</voice>
    <type>eighth</type>
    <stem>down</stem>
    <notehead>normal</notehead>
    <staff>1</staff>
    <beam number="1">end</beam>
   </note>
   <backup>
    <duration>8</duration>
   </backup>
   <harmony>
    <root>
     <root-step>E</root-step>
     <root-alter>0</root-alter>
    </root>
    <kind>diminished</kind>
    <bass>
     <bass-step>G</bass-step>
     <bass-alter>0</bass-alter>
    </bass>
    <frame>
     <frame-strings>6</frame-strings>
     <frame-frets>5</frame-frets>
     <first-fret>1</first-fret>
     <frame-note>
      <string>4</string>
      <fret>5</fret>
     </frame-note>
     <frame-note>
      <string>3</string>
      <fret>3</fret>
     </frame-note>
     <frame-note>
      <string>2</string>
      <fret>5</fret>
     </frame-note>
    </frame>
   </harmony>
   <note>
    <pitch>
     <step>D</step>
     <alter>-1</alter>
     <octave>4</octave>
    </pitch>
    <duration>1</duration>
    <voice>5</voice>
    <type>eighth</type>
    <stem>down</stem>
    <staff>2</staff>
    <beam number="1">begin</beam>
    <notations>
     <technical>
      <string>3</string>
      <fret>3</fret>
     </technical>
    </notations>
   </note>
   <note>
    <chord/>
    <pitch>
     <step>G</step>
     <octave>4</octave>
    </pitch>
    <duration>1</duration>
    <voice>5</voice>
    <type>eighth</type>
    <accidental>natural</accidental>
    <stem>down</stem>
    <staff>2</staff>
    <beam number="1">begin</beam>
    <notations>
     <technical>
      <string>1</string>
      <fret>0</fret>
     </technical>
    </notations>
   </note>
   <note>
    <pitch>
     <step>B</step>
     <alter>-1</alter>
     <octave>3</octave>
    </pitch>
    <duration>1</duration>
    <voice>5</voice>
    <type>eighth</type>
    <accidental>flat</accidental>
    <stem>down</stem>
    <staff>2</staff>
    <beam number="1">end</beam>
    <notations>
     <technical>
      <string>3</string>
      <fret>0</fret>
     </technical>
    </notations>
   </note>
   <note>
    <pitch>
     <step>D</step>
     <alter>-1</alter>
     <octave>4</octave>
    </pitch>
    <duration>1</duration>
    <voice>5</voice>
    <type>eighth</type>
    <stem>down</stem>
    <staff>2</staff>
    <beam number="1">begin</beam>
    <notations>
     <technical>
      <string>3</string>
      <fret>3</fret>
     </technical>
    </notations>
   </note>
   <note>
    <chord/>
    <pitch>
     <step>G</step>
     <octave>4</octave>
    </pitch>
    <duration>1</duration>
    <voice>5</voice>
    <type>eighth</type>
    <stem>down</stem>
    <staff>2</staff>
    <beam number="1">begin</beam>
    <notations>
     <technical>
      <string>2</string>
      <fret>5</fret>
     </technical>
    </notations>
   </note>
   <note>
    <pitch>
     <step>B</step>
     <alter>-1</alter>
     <octave>3</octave>
    </pitch>
    <duration>1</duration>
    <voice>5</voice>
    <type>eighth</type>
    <stem>down</stem>
    <staff>2</staff>
    <beam number="1">end</beam>
    <notations>
     <technical>
      <string>4</string>
      <fret>5</fret>
     </technical>
    </notations>
   </note>
   <note>
    <pitch>
     <step>D</step>
     <alter>-1</alter>
     <octave>4</octave>
    </pitch>
    <duration>1</duration>
    <voice>5</voice>
    <type>eighth</type>
    <stem>down</stem>
    <staff>2</staff>
    <beam number="1">begin</beam>
    <notations>
     <technical>
      <string>3</string>
      <fret>3</fret>
     </technical>
    </notations>
   </note>
   <note>
    <chord/>
    <pitch>
     <step>G</step>
     <octave>4</octave>
    </pitch>
    <duration>1</duration>
    <voice>5</voice>
    <type>eighth</type>
    <stem>down</stem>
    <staff>2</staff>
    <beam number="1">begin</beam>
    <notations>
     <technical>
      <string>2</string>
      <fret>5</fret>
     </technical>
    </notations>
   </note>
   <note>
    <pitch>
     <step>B</step>
     <alter>-1</alter>
     <octave>3</octave>
    </pitch>
    <duration>1</duration>
    <voice>5</voice>
    <type>eighth</type>
    <stem>down</stem>
    <staff>2</staff>
    <beam number="1">end</beam>
    <notations>
     <technical>
      <string>4</string>
      <fret>5</fret>
     </technical>
    </notations>
   </note>
   <note>
    <pitch>
     <step>D</step>
     <alter>-1</alter>
     <octave>4</octave>
    </pitch>
    <duration>1</duration>
    <voice>5</voice>
    <type>eighth</type>
    <stem>down</stem>
    <staff>2</staff>
    <beam number="1">begin</beam>
    <notations>
     <technical>
      <string>3</string>
      <fret>3</fret>
     </technical>
    </notations>
   </note>
   <note>
    <chord/>
    <pitch>
     <step>G</step>
     <octave>4</octave>
    </pitch>
    <duration>1</duration>
    <voice>5</voice>
    <type>eighth</type>
    <stem>down</stem>
    <staff>2</staff>
    <beam number="1">begin</beam>
    <notations>
     <technical>
      <string>2</string>
      <fret>5</fret>
     </technical>
    </notations>
   </note>
   <note>
    <pitch>
     <step>B</step>
     <alter>-1</alter>
     <octave>3</octave>
    </pitch>
    <duration>1</duration>
    <voice>5</voice>
    <type>eighth</type>
    <stem>down</stem>
    <staff>2</staff>
    <beam number="1">end</beam>
    <notations>
     <technical>
      <string>4</string>
      <fret>5</fret>
     </technical>
    </notations>
   </note>
  </measure>
  <measure number="6">
   <attributes>
    <staff-details number="1">
     <capo>3</capo>
    </staff-details>
    <staff-details number="2">
     <capo>3</capo>
    </staff-details>
   </attributes>
   <note>
    <pitch>
     <step>D</step>
     <alter>-1</alter>
     <octave>5</octave>
    </pitch>
    <duration>1</duration>
    <voice>1</voice>
    <type>eighth</type>
    <stem>down</stem>
    <notehead>normal</notehead>
    <staff>1</staff>
    <beam number="1">begin</beam>
   </note>
   <note>
    <chord/>
    <pitch>
     <step>G</step>
     <octave>5</octave>
    </pitch>
    <duration>1</duration>
    <voice>1</voice>
    <type>eighth</type>
    <accidental>natural</accidental>
    <stem>down</stem>
    <notehead>normal</notehead>
    <staff>1</staff>
    <beam number="1">begin</beam>
   </note>
   <note>
    <pitch>
     <step>B</step>
     <alter>-1</alter>
     <octave>4</octave>
    </pitch>
    <duration>1</duration>
    <voice>1</voice>
    <type>eighth</type>
    <accidental>flat</accidental>
    <stem>down</stem>
    <notehead>normal</notehead>
    <staff>1</staff>
    <beam number="1">end</beam>
   </note>
   <note>
    <pitch>
     <step>D</step>
     <alter>-1</alter>
     <octave>5</octave>
    </pitch>
    <duration>1</duration>
    <voice>1</voice>
    <type>eighth</type>
    <stem>down</stem>
    <notehead>normal</notehead>
    <staff>1</staff>
    <beam number="1">begin</beam>
   </note>
   <note>
    <chord/>
    <pitch>
     <step>G</step>
     <octave>5</octave>
    </pitch>
    <duration>1</duration>
    <voice>1</voice>
    <type>eighth</type>
    <stem>down</stem>
    <notehead>normal</notehead>
    <staff>1</staff>
    <beam number="1">begin</beam>
   </note>
   <note>
    <pitch>
     <step>B</step>
     <alter>-1</alter>
     <octave>4</octave>
    </pitch>
    <duration>1</duration>
    <voice>1</voice>
    <type>eighth</type>
    <stem>down</stem>
    <notehead>normal</notehead>
    <staff>1</staff>
    <beam number="1">end</beam>
   </note>
   <note>
    <pitch>
     <step>A</step>
     <alter>-1</alter>
     <octave>5</octave>
    </pitch>
    <duration>1</duration>
    <voice>1</voice>
    <type>eighth</type>
    <accidental>flat</accidental>
    <stem>down</stem>
    <notehead>normal</notehead>
    <staff>1</staff>
    <beam number="1">begin</beam>
   </note>
   <note>
    <chord/>
    <pitch>
     <step>A</step>
     <alter>-1</alter>
     <octave>4</octave>
    </pitch>
    <duration>1</duration>
    <voice>1</voice>
    <type>eighth</type>
    <accidental>flat</accidental>
    <stem>down</stem>
    <notehead>normal</notehead>
    <staff>1</staff>
    <beam number="1">begin</beam>
   </note>
   <note>
    <chord/>
    <pitch>
     <step>D</step>
     <alter>-1</alter>
     <octave>5</octave>
    </pitch>
    <duration>1</duration>
    <voice>1</voice>
    <type>eighth</type>
    <stem>down</stem>
    <notehead>normal</notehead>
    <staff>1</staff>
    <beam number="1">begin</beam>
   </note>
   <note>
    <pitch>
     <step>B</step>
     <alter>-1</alter>
     <octave>4</octave>
    </pitch>
    <duration>1</duration>
    <voice>1</voice>
    <type>eighth</type>
    <stem>down</stem>
    <notehead>normal</notehead>
    <staff>1</staff>
    <beam number="1">end</beam>
   </note>
   <note>
    <pitch>
     <step>G</step>
     <octave>5</octave>
    </pitch>
    <duration>1</duration>
    <voice>1</voice>
    <type>eighth</type>
    <stem>down</stem>
    <notehead>normal</notehead>
    <staff>1</staff>
    <beam number="1">begin</beam>
   </note>
   <note>
    <chord/>
    <pitch>
     <step>G</step>
     <octave>4</octave>
    </pitch>
    <duration>1</duration>
    <voice>1</voice>
    <type>eighth</type>
    <accidental>natural</accidental>
    <stem>down</stem>
    <notehead>normal</notehead>
    <staff>1</staff>
    <beam number="1">begin</beam>
   </note>
   <note>
    <chord/>
    <pitch>
     <step>D</step>
     <alter>-1</alter>
     <octave>5</octave>
    </pitch>
    <duration>1</duration>
    <voice>1</voice>
    <type>eighth</type>
    <stem>down</stem>
    <notehead>normal</notehead>
    <staff>1</staff>
    <beam number="1">begin</beam>
   </note>
   <note>
    <pitch>
     <step>B</step>
     <alter>-1</alter>
     <octave>4</octave>
    </pitch>
    <duration>1</duration>
    <voice>1</voice>
    <type>eighth</type>
    <stem>down</stem>
    <notehead>normal</notehead>
    <staff>1</staff>
    <beam number="1">end</beam>
   </note>
   <backup>
    <duration>8</duration>
   </backup>
   <note>
    <pitch>
     <step>D</step>
     <alter>-1</alter>
     <octave>4</octave>
    </pitch>
    <duration>1</duration>
    <voice>5</voice>
    <type>eighth</type>
    <stem>down</stem>
    <staff>2</staff>
    <beam number="1">begin</beam>
    <notations>
     <technical>
      <string>3</string>
      <fret>3</fret>
     </technical>
    </notations>
   </note>
   <note>
    <chord/>
    <pitch>
     <step>G</step>
     <octave>4</octave>
    </pitch>
    <duration>1</duration>
    <voice>5</voice>
    <type>eighth</type>
    <accidental>natural</accidental>
    <stem>down</stem>
    <staff>2</staff>
    <beam number="1">begin</beam>
    <notations>
     <technical>
      <string>2</string>
      <fret>5</fret>
     </technical>
    </notations>
   </note>
   <note>
    <pitch>
     <step>B</step>
     <alter>-1</alter>
     <octave>3</octave>
    </pitch>
    <duration>1</duration>
    <voice>5</voice>
    <type>eighth</type>
    <accidental>flat</accidental>
    <stem>down</stem>
    <staff>2</staff>
    <beam number="1">end</beam>
    <notations>
     <technical>
      <string>4</string>
      <fret>5</fret>
     </technical>
    </notations>
   </note>
   <note>
    <pitch>
     <step>D</step>
     <alter>-1</alter>
     <octave>4</octave>
    </pitch>
    <duration>1</duration>
    <voice>5</voice>
    <type>eighth</type>
    <stem>down</stem>
    <staff>2</staff>
    <beam number="1">begin</beam>
    <notations>
     <technical>
      <string>3</string>
      <fret>3</fret>
     </technical>
    </notations>
   </note>
   <note>
    <chord/>
    <pitch>
     <step>G</step>
     <octave>4</octave>
    </pitch>
    <duration>1</duration>
    <voice>5</voice>
    <type>eighth</type>
    <stem>down</stem>
    <staff>2</staff>
    <beam number="1">begin</beam>
    <notations>
     <technical>
      <string>2</string>
      <fret>5</fret>
     </technical>
    </notations>
   </note>
   <note>
    <pitch>
     <step>B</step>
     <alter>-1</alter>
     <octave>3</octave>
    </pitch>
    <duration>1</duration>
    <voice>5</voice>
    <type>eighth</type>
    <stem>down</stem>
    <staff>2</staff>
    <beam number="1">end</beam>
    <notations>
     <technical>
      <string>4</string>
      <fret>5</fret>
     </technical>
    </notations>
   </note>
   <note>
    <pitch>
     <step>A</step>
     <alter>-1</alter>
     <octave>4</octave>
    </pitch>
    <duration>1</duration>
    <voice>5</voice>
    <type>eighth</type>
    <accidental>flat</accidental>
    <stem>down</stem>
    <staff>2</staff>
    <beam number="1">begin</beam>
    <notations>
     <technical>
      <string>2</string>
      <fret>6</fret>
     </technical>
    </notations>
   </note>
   <note>
    <chord/>
    <pitch>
     <step>A</step>
     <alter>-1</alter>
     <octave>3</octave>
    </pitch>
    <duration>1</duration>
    <voice>5</voice>
    <type>eighth</type>
    <accidental>flat</accidental>
    <stem>down</stem>
    <staff>2</staff>
    <beam number="1">begin</beam>
    <notations>
     <technical>
      <string>4</string>
      <fret>3</fret>
     </technical>
    </notations>
   </note>
   <note>
    <chord/>
    <pitch>
     <step>D</step>
     <alter>-1</alter>
     <octave>4</octave>
    </pitch>
    <duration>1</duration>
    <voice>5</voice>
    <type>eighth</type>
    <stem>down</stem>
    <staff>2</staff>
    <beam number="1">begin</beam>
    <notations>
     <technical>
      <string>3</string>
      <fret>3</fret>
     </technical>
    </notations>
   </note>
   <note>
    <pitch>
     <step>B</step>
     <alter>-1</alter>
     <octave>3</octave>
    </pitch>
    <duration>1</duration>
    <voice>5</voice>
    <type>eighth</type>
    <stem>down</stem>
    <staff>2</staff>
    <beam number="1">end</beam>
    <notations>
     <technical>
      <string>4</string>
      <fret>5</fret>
     </technical>
    </notations>
   </note>
   <note>
    <pitch>
     <step>G</step>
     <octave>4</octave>
    </pitch>
    <duration>1</duration>
    <voice>5</voice>
    <type>eighth</type>
    <stem>down</stem>
    <staff>2</staff>
    <beam number="1">begin</beam>
    <notations>
     <technical>
      <string>1</string>
      <fret>0</fret>
     </technical>
    </notations>
   </note>
   <note>
    <chord/>
    <pitch>
     <step>G</step>
     <octave>3</octave>
    </pitch>
    <duration>1</duration>
    <voice>5</voice>
    <type>eighth</type>
    <accidental>natural</accidental>
    <stem>down</stem>
    <staff>2</staff>
    <beam number="1">begin</beam>
    <notations>
     <technical>
      <string>4</string>
      <fret>2</fret>
     </technical>
    </notations>
   </note>
   <note>
    <chord/>
    <pitch>
     <step>D</step>
     <alter>-1</alter>
     <octave>4</octave>
    </pitch>
    <duration>1</duration>
    <voice>5</voice>
    <type>eighth</type>
    <stem>down</stem>
    <staff>2</staff>
    <beam number="1">begin</beam>
    <notations>
     <technical>
      <string>3</string>
      <fret>3</fret>
     </technical>
    </notations>
   </note>
   <note>
    <pitch>
     <step>B</step>
     <alter>-1</alter>
     <octave>3</octave>
    </pitch>
    <duration>1</duration>
    <voice>5</voice>
    <type>eighth</type>
    <stem>down</stem>
    <staff>2</staff>
    <beam number="1">end</beam>
    <notations>
     <technical>
      <string>3</string>
      <fret>0</fret>
     </technical>
    </notations>
   </note>
  </measure>
  <measure number="7">
   <attributes>
    <staff-details number="1">
     <capo>3</capo>
    </staff-details>
    <staff-details number="2">
     <capo>3</capo>
    </staff-details>
   </attributes>
   <harmony>
    <root>
     <root-step>F</root-step>
     <root-alter>0</root-alter>
    </root>
    <kind>major-seventh</kind>
    <frame>
     <frame-strings>6</frame-strings>
     <frame-frets>5</frame-frets>
     <first-fret>1</first-fret>
     <frame-note>
      <string>6</string>
      <fret>1</fret>
     </frame-note>
     <frame-note>
      <string>4</string>
      <fret>3</fret>
     </frame-note>
     <frame-note>
      <string>3</string>
      <fret>2</fret>
     </frame-note>
     <frame-note>
      <string>1</string>
      <fret>0</fret>
     </frame-note>
    </frame>
    <degree>
     <degree-value>5</degree-value>
     <degree-alter>0</degree-alter>
     <degree-type>subtract</degree-type>
    </degree>
   </harmony>
   <note>
    <pitch>
     <step>C</step>
     <octave>5</octave>
    </pitch>
    <duration>1</duration>
    <voice>1</voice>
    <type>eighth</type>
    <accidental>natural</accidental>
    <stem>up</stem>
    <notehead>normal</notehead>
    <staff>1</staff>
    <beam number="1">begin</beam>
   </note>
   <note>
    <chord/>
    <pitch>
     <step>G</step>
     <octave>5</octave>
    </pitch>
    <duration>1</duration>
    <voice>1</voice>
    <type>eighth</type>
    <accidental>natural</accidental>
    <stem>up</stem>
    <notehead>normal</notehead>
    <staff>1</staff>
    <beam number="1">begin</beam>
   </note>
   <note>
    <chord/>
    <pitch>
     <step>A</step>
     <alter>-1</alter>
     <octave>3</octave>
    </pitch>
    <duration>1</duration>
    <voice>1</voice>
    <type>eighth</type>
    <accidental>flat</accidental>
    <stem>up</stem>
    <notehead>normal</notehead>
    <staff>1</staff>
    <beam number="1">begin</beam>
   </note>
   <note>
    <pitch>
     <step>A</step>
     <alter>-1</alter>
     <octave>4</octave>
    </pitch>
    <duration>1</duration>
    <voice>1</voice>
    <type>eighth</type>
    <accidental>flat</accidental>
    <stem>up</stem>
    <notehead>normal</notehead>
    <staff>1</staff>
    <beam number="1">end</beam>
   </note>
   <note>
    <pitch>
     <step>C</step>
     <octave>5</octave>
    </pitch>
    <duration>1</duration>
    <voice>1</voice>
    <type>eighth</type>
    <stem>down</stem>
    <notehead>normal</notehead>
    <staff>1</staff>
    <beam number="1">begin</beam>
   </note>
   <note>
    <chord/>
    <pitch>
     <step>G</step>
     <octave>5</octave>
    </pitch>
    <duration>1</duration>
    <voice>1</voice>
    <type>eighth</type>
    <stem>down</stem>
    <notehead>normal</notehead>
    <staff>1</staff>
    <beam number="1">begin</beam>
   </note>
   <note>
    <pitch>
     <step>A</step>
     <alter>-1</alter>
     <octave>4</octave>
    </pitch>
    <duration>1</duration>
    <voice>1</voice>
    <type>eighth</type>
    <stem>down</stem>
    <notehead>normal</notehead>
    <staff>1</staff>
    <beam number="1">end</beam>
   </note>
   <harmony>
    <root>
     <root-step>D</root-step>
     <root-alter>0</root-alter>
    </root>
    <kind>minor</kind>
    <bass>
     <bass-step>F</bass-step>
     <bass-alter>0</bass-alter>
    </bass>
    <frame>
     <frame-strings>6</frame-strings>
     <frame-frets>5</frame-frets>
     <first-fret>1</first-fret>
     <frame-note>
      <string>4</string>
      <fret>3</fret>
     </frame-note>
     <frame-note>
      <string>3</string>
      <fret>2</fret>
     </frame-note>
     <frame-note>
      <string>2</string>
      <fret>3</fret>
     </frame-note>
    </frame>
   </harmony>
   <note>
    <pitch>
     <step>C</step>
     <octave>5</octave>
    </pitch>
    <duration>1</duration>
    <voice>1</voice>
    <type>eighth</type>
    <stem>down</stem>
    <notehead>normal</notehead>
    <staff>1</staff>
    <beam number="1">begin</beam>
   </note>
   <note>
    <chord/>
    <pitch>
     <step>F</step>
     <octave>5</octave>
    </pitch>
    <duration>1</duration>
    <voice>1</voice>
    <type>eighth</type>
    <accidental>natural</accidental>
    <stem>down</stem>
    <notehead>normal</notehead>
    <staff>1</staff>
    <beam number="1">begin</beam>
   </note>
   <note>
    <pitch>
     <step>A</step>
     <alter>-1</alter>
     <octave>4</octave>
    </pitch>
    <duration>1</duration>
    <voice>1</voice>
    <type>eighth</type>
    <stem>down</stem>
    <notehead>normal</notehead>
    <staff>1</staff>
    <beam number="1">end</beam>
   </note>
   <note>
    <pitch>
     <step>C</step>
     <octave>5</octave>
    </pitch>
    <duration>1</duration>
    <voice>1</voice>
    <type>eighth</type>
    <stem>down</stem>
    <notehead>normal</notehead>
    <staff>1</staff>
    <beam number="1">begin</beam>
   </note>
   <note>
    <chord/>
    <pitch>
     <step>F</step>
     <octave>5</octave>
    </pitch>
    <duration>1</duration>
    <voice>1</voice>
    <type>eighth</type>
    <stem>down</stem>
    <notehead>normal</notehead>
    <staff>1</staff>
    <beam number="1">begin</beam>
   </note>
   <note>
    <pitch>
     <step>A</step>
     <alter>-1</alter>
     <octave>4</octave>
    </pitch>
    <duration>1</duration>
    <voice>1</voice>
    <type>eighth</type>
    <stem>down</stem>
    <notehead>normal</notehead>
    <staff>1</staff>
    <beam number="1">end</beam>
   </note>
   <backup>
    <duration>8</duration>
   </backup>
   <harmony>
    <root>
     <root-step>F</root-step>
     <root-alter>0</root-alter>
    </root>
    <kind>major-seventh</kind>
    <frame>
     <frame-strings>6</frame-strings>
     <frame-frets>5</frame-frets>
     <first-fret>1</first-fret>
     <frame-note>
      <string>6</string>
      <fret>1</fret>
     </frame-note>
     <frame-note>
      <string>4</string>
      <fret>3</fret>
     </frame-note>
     <frame-note>
      <string>3</string>
      <fret>2</fret>
     </frame-note>
     <frame-note>
      <string>1</string>
      <fret>0</fret>
     </frame-note>
    </frame>
    <degree>
     <degree-value>5</degree-value>
     <degree-alter>0</degree-alter>
     <degree-type>subtract</degree-type>
    </degree>
   </harmony>
   <note>
    <pitch>
     <step>C</step>
     <octave>4</octave>
    </pitch>
    <duration>1</duration>
    <voice>5</voice>
    <type>eighth</type>
    <accidental>natural</accidental>
    <stem>up</stem>
    <staff>2</staff>
    <beam number="1">begin</beam>
    <notations>
     <technical>
      <string>3</string>
      <fret>2</fret>
     </technical>
    </notations>
   </note>
   <note>
    <chord/>
    <pitch>
     <step>G</step>
     <octave>4</octave>
    </pitch>
    <duration>1</duration>
    <voice>5</voice>
    <type>eighth</type>
    <accidental>natural</accidental>
    <stem>up</stem>
    <staff>2</staff>
    <beam number="1">begin</beam>
    <notations>
     <technical>
      <string>1</string>
      <fret>0</fret>
     </technical>
    </notations>
   </note>
   <note>
    <chord/>
    <pitch>
     <step>A</step>
     <alter>-1</alter>
     <octave>2</octave>
    </pitch>
    <duration>1</duration>
    <voice>5</voice>
    <type>eighth</type>
    <accidental>flat</accidental>
    <stem>up</stem>
    <staff>2</staff>
    <beam number="1">begin</beam>
    <notations>
     <technical>
      <string>6</string>
      <fret>1</fret>
     </technical>
    </notations>
   </note>
   <note>
    <pitch>
     <step>A</step>
     <alter>-1</alter>
     <octave>3</octave>
    </pitch>
    <duration>1</duration>
    <voice>5</voice>
    <type>eighth</type>
    <accidental>flat</accidental>
    <stem>up</stem>
    <staff>2</staff>
    <beam number="1">end</beam>
    <notations>
     <technical>
      <string>4</string>
      <fret>3</fret>
     </technical>
    </notations>
   </note>
   <note>
    <pitch>
     <step>C</step>
     <octave>4</octave>
    </pitch>
    <duration>1</duration>
    <voice>5</voice>
    <type>eighth</type>
    <stem>down</stem>
    <staff>2</staff>
    <beam number="1">begin</beam>
    <notations>
     <technical>
      <string>3</string>
      <fret>2</fret>
     </technical>
    </notations>
   </note>
   <note>
    <chord/>
    <pitch>
     <step>G</step>
     <octave>4</octave>
    </pitch>
    <duration>1</duration>
    <voice>5</voice>
    <type>eighth</type>
    <stem>down</stem>
    <staff>2</staff>
    <beam number="1">begin</beam>
    <notations>
     <technical>
      <string>1</string>
      <fret>0</fret>
     </technical>
    </notations>
   </note>
   <note>
    <pitch>
     <step>A</step>
     <alter>-1</alter>
     <octave>3</octave>
    </pitch>
    <duration>1</duration>
    <voice>5</voice>
    <type>eighth</type>
    <stem>down</stem>
    <staff>2</staff>
    <beam number="1">end</beam>
    <notations>
     <technical>
      <string>4</string>
      <fret>3</fret>
     </technical>
    </notations>
   </note>
   <harmony>
    <root>
     <root-step>D</root-step>
     <root-alter>0</root-alter>
    </root>
    <kind>minor</kind>
    <bass>
     <bass-step>F</bass-step>
     <bass-alter>0</bass-alter>
    </bass>
    <frame>
     <frame-strings>6</frame-strings>
     <frame-frets>5</frame-frets>
     <first-fret>1</first-fret>
     <frame-note>
      <string>4</string>
      <fret>3</fret>
     </frame-note>
     <frame-note>
      <string>3</string>
      <fret>2</fret>
     </frame-note>
     <frame-note>
      <string>2</string>
      <fret>3</fret>
     </frame-note>
    </frame>
   </harmony>
   <note>
    <pitch>
     <step>C</step>
     <octave>4</octave>
    </pitch>
    <duration>1</duration>
    <voice>5</voice>
    <type>eighth</type>
    <stem>down</stem>
    <staff>2</staff>
    <beam number="1">begin</beam>
    <notations>
     <technical>
      <string>3</string>
      <fret>2</fret>
     </technical>
    </notations>
   </note>
   <note>
    <chord/>
    <pitch>
     <step>F</step>
     <octave>4</octave>
    </pitch>
    <duration>1</duration>
    <voice>5</voice>
    <type>eighth</type>
    <accidental>natural</accidental>
    <stem>down</stem>
    <staff>2</staff>
    <beam number="1">begin</beam>
    <notations>
     <technical>
      <string>2</string>
      <fret>3</fret>
     </technical>
    </notations>
   </note>
   <note>
    <pitch>
     <step>A</step>
     <alter>-1</alter>
     <octave>3</octave>
    </pitch>
    <duration>1</duration>
    <voice>5</voice>
    <type>eighth</type>
    <stem>down</stem>
    <staff>2</staff>
    <beam number="1">end</beam>
    <notations>
     <technical>
      <string>4</string>
      <fret>3</fret>
     </technical>
    </notations>
   </note>
   <note>
    <pitch>
     <step>C</step>
     <octave>4</octave>
    </pitch>
    <duration>1</duration>
    <voice>5</voice>
    <type>eighth</type>
    <stem>down</stem>
    <staff>2</staff>
    <beam number="1">begin</beam>
    <notations>
     <technical>
      <string>3</string>
      <fret>2</fret>
     </technical>
    </notations>
   </note>
   <note>
    <chord/>
    <pitch>
     <step>F</step>
     <octave>4</octave>
    </pitch>
    <duration>1</duration>
    <voice>5</voice>
    <type>eighth</type>
    <stem>down</stem>
    <staff>2</staff>
    <beam number="1">begin</beam>
    <notations>
     <technical>
      <string>2</string>
      <fret>3</fret>
     </technical>
    </notations>
   </note>
   <note>
    <pitch>
     <step>A</step>
     <alter>-1</alter>
     <octave>3</octave>
    </pitch>
    <duration>1</duration>
    <voice>5</voice>
    <type>eighth</type>
    <stem>down</stem>
    <staff>2</staff>
    <beam number="1">end</beam>
    <notations>
     <technical>
      <string>4</string>
      <fret>3</fret>
     </technical>
    </notations>
   </note>
  </measure>
  <measure number="8">
   <attributes>
    <staff-details number="1">
     <capo>3</capo>
    </staff-details>
    <staff-details number="2">
     <capo>3</capo>
    </staff-details>
   </attributes>
   <note>
    <pitch>
     <step>C</step>
     <octave>5</octave>
    </pitch>
    <duration>1</duration>
    <voice>1</voice>
    <type>eighth</type>
    <accidental>natural</accidental>
    <stem>down</stem>
    <notehead>normal</notehead>
    <staff>1</staff>
    <beam number="1">begin</beam>
   </note>
   <note>
    <chord/>
    <pitch>
     <step>F</step>
     <octave>5</octave>
    </pitch>
    <duration>1</duration>
    <voice>1</voice>
    <type>eighth</type>
    <accidental>natural</accidental>
    <stem>down</stem>
    <notehead>normal</notehead>
    <staff>1</staff>
    <beam number="1">begin</beam>
   </note>
   <note>
    <pitch>
     <step>A</step>
     <alter>-1</alter>
     <octave>4</octave>
    </pitch>
    <duration>1</duration>
    <voice>1</voice>
    <type>eighth</type>
    <accidental>flat</accidental>
    <stem>down</stem>
    <notehead>normal</notehead>
    <staff>1</staff>
    <beam number="1">end</beam>
   </note>
   <note>
    <pitch>
     <step>C</step>
     <octave>5</octave>
    </pitch>
    <duration>1</duration>
    <voice>1</voice>
    <type>eighth</type>
    <stem>down</stem>
    <notehead>normal</notehead>
    <staff>1</staff>
    <beam number="1">begin</beam>
   </note>
   <note>
    <chord/>
    <pitch>
     <step>F</step>
     <octave>5</octave>
    </pitch>
    <duration>1</duration>
    <voice>1</voice>
    <type>eighth</type>
    <stem>down</stem>
    <notehead>normal</notehead>
    <staff>1</staff>
    <beam number="1">begin</beam>
   </note>
   <note>
    <pitch>
     <step>A</step>
     <alter>-1</alter>
     <octave>4</octave>
    </pitch>
    <duration>1</duration>
    <voice>1</voice>
    <type>eighth</type>
    <stem>down</stem>
    <notehead>normal</notehead>
    <staff>1</staff>
    <beam number="1">end</beam>
   </note>
   <harmony>
    <root>
     <root-step>E</root-step>
     <root-alter>0</root-alter>
    </root>
    <kind>dominant</kind>
    <frame>
     <frame-strings>6</frame-strings>
     <frame-frets>5</frame-frets>
     <first-fret>1</first-fret>
     <frame-note>
      <string>6</string>
      <fret>0</fret>
     </frame-note>
     <frame-note>
      <string>4</string>
      <fret>2</fret>
     </frame-note>
     <frame-note>
      <string>3</string>
      <fret>1</fret>
     </frame-note>
     <frame-note>
      <string>2</string>
      <fret>3</fret>
     </frame-note>
    </frame>
    <degree>
     <degree-value>5</degree-value>
     <degree-alter>0</degree-alter>
     <degree-type>subtract</degree-type>
    </degree>
   </harmony>
   <note>
    <pitch>
     <step>G</step>
     <octave>3</octave>
    </pitch>
    <duration>1</duration>
    <voice>1</voice>
    <type>eighth</type>
    <accidental>natural</accidental>
    <stem>up</stem>
    <notehead>normal</notehead>
    <staff>1</staff>
    <beam number="1">begin</beam>
   </note>
   <note>
    <chord/>
    <pitch>
     <step>F</step>
     <octave>5</octave>
    </pitch>
    <duration>1</duration>
    <voice>1</voice>
    <type>eighth</type>
    <stem>up</stem>
    <notehead>normal</notehead>
    <staff>1</staff>
    <beam number="1">begin</beam>
   </note>
   <note>
    <chord/>
    <pitch>
     <step>B</step>
     <octave>4</octave>
    </pitch>
    <duration>1</duration>
    <voice>1</voice>
    <type>eighth</type>
    <stem>up</stem>
    <notehead>normal</notehead>
    <staff>1</staff>
    <beam number="1">begin</beam>
   </note>
   <note>
    <pitch>
     <step>G</step>
     <octave>4</octave>
    </pitch>
    <duration>1</duration>
    <voice>1</voice>
    <type>eighth</type>
    <accidental>natural</accidental>
    <stem>up</stem>
    <notehead>normal</notehead>
    <staff>1</staff>
    <beam number="1">end</beam>
   </note>
   <note>
    <pitch>
     <step>F</step>
     <octave>5</octave>
    </pitch>
    <duration>1</duration>
    <voice>1</voice>
    <type>eighth</type>
    <stem>down</stem>
    <notehead>normal</notehead>
    <staff>1</staff>
    <beam number="1">begin</beam>
   </note>
   <note>
    <chord/>
    <pitch>
     <step>B</step>
     <octave>4</octave>
    </pitch>
    <duration>1</duration>
    <voice>1</voice>
    <type>eighth</type>
    <stem>down</stem>
    <notehead>normal</notehead>
    <staff>1</staff>
    <beam number="1">begin</beam>
   </note>
   <note>
    <pitch>
     <step>G</step>
     <octave>4</octave>
    </pitch>
    <duration>1</duration>
    <voice>1</voice>
    <type>eighth</type>
    <stem>down</stem>
    <notehead>normal</notehead>
    <staff>1</staff>
    <beam number="1">end</beam>
   </note>
   <backup>
    <duration>8</duration>
   </backup>
   <note>
    <pitch>
     <step>C</step>
     <octave>4</octave>
    </pitch>
    <duration>1</duration>
    <voice>5</voice>
    <type>eighth</type>
    <accidental>natural</accidental>
    <stem>down</stem>
    <staff>2</staff>
    <beam number="1">begin</beam>
    <notations>
     <technical>
      <string>3</string>
      <fret>2</fret>
     </technical>
    </notations>
   </note>
   <note>
    <chord/>
    <pitch>
     <step>F</step>
     <octave>4</octave>
    </pitch>
    <duration>1</duration>
    <voice>5</voice>
    <type>eighth</type>
    <accidental>natural</accidental>
    <stem>down</stem>
    <staff>2</staff>
    <beam number="1">begin</beam>
    <notations>
     <technical>
      <string>2</string>
      <fret>3</fret>
     </technical>
    </notations>
   </note>
   <note>
    <pitch>
     <step>A</step>
     <alter>-1</alter>
     <octave>3</octave>
    </pitch>
    <duration>1</duration>
    <voice>5</voice>
    <type>eighth</type>
    <accidental>flat</accidental>
    <stem>down</stem>
    <staff>2</staff>
    <beam number="1">end</beam>
    <notations>
     <technical>
      <string>4</string>
      <fret>3</fret>
     </technical>
    </notations>
   </note>
   <note>
    <pitch>
     <step>C</step>
     <octave>4</octave>
    </pitch>
    <duration>1</duration>
    <voice>5</voice>
    <type>eighth</type>
    <stem>down</stem>
    <staff>2</staff>
    <beam number="1">begin</beam>
    <notations>
     <technical>
      <string>3</string>
      <fret>2</fret>
     </technical>
    </notations>
   </note>
   <note>
    <chord/>
    <pitch>
     <step>F</step>
     <octave>4</octave>
    </pitch>
    <duration>1</duration>
    <voice>5</voice>
    <type>eighth</type>
    <stem>down</stem>
    <staff>2</staff>
    <beam number="1">begin</beam>
    <notations>
     <technical>
      <string>2</string>
      <fret>3</fret>
     </technical>
    </notations>
   </note>
   <note>
    <pitch>
     <step>A</step>
     <alter>-1</alter>
     <octave>3</octave>
    </pitch>
    <duration>1</duration>
    <voice>5</voice>
    <type>eighth</type>
    <stem>down</stem>
    <staff>2</staff>
    <beam number="1">end</beam>
    <notations>
     <technical>
      <string>4</string>
      <fret>3</fret>
     </technical>
    </notations>
   </note>
   <harmony>
    <root>
     <root-step>E</root-step>
     <root-alter>0</root-alter>
    </root>
    <kind>dominant</kind>
    <frame>
     <frame-strings>6</frame-strings>
     <frame-frets>5</frame-frets>
     <first-fret>1</first-fret>
     <frame-note>
      <string>6</string>
      <fret>0</fret>
     </frame-note>
     <frame-note>
      <string>4</string>
      <fret>2</fret>
     </frame-note>
     <frame-note>
      <string>3</string>
      <fret>1</fret>
     </frame-note>
     <frame-note>
      <string>2</string>
      <fret>3</fret>
     </frame-note>
    </frame>
    <degree>
     <degree-value>5</degree-value>
     <degree-alter>0</degree-alter>
     <degree-type>subtract</degree-type>
    </degree>
   </harmony>
   <note>
    <pitch>
     <step>G</step>
     <octave>2</octave>
    </pitch>
    <duration>1</duration>
    <voice>5</voice>
    <type>eighth</type>
    <accidental>natural</accidental>
    <stem>up</stem>
    <staff>2</staff>
    <beam number="1">begin</beam>
    <notations>
     <technical>
      <string>6</string>
      <fret>0</fret>
     </technical>
    </notations>
   </note>
   <note>
    <chord/>
    <pitch>
     <step>F</step>
     <octave>4</octave>
    </pitch>
    <duration>1</duration>
    <voice>5</voice>
    <type>eighth</type>
    <stem>up</stem>
    <staff>2</staff>
    <beam number="1">begin</beam>
    <notations>
     <technical>
      <string>2</string>
      <fret>3</fret>
     </technical>
    </notations>
   </note>
   <note>
    <chord/>
    <pitch>
     <step>B</step>
     <octave>3</octave>
    </pitch>
    <duration>1</duration>
    <voice>5</voice>
    <type>eighth</type>
    <stem>up</stem>
    <staff>2</staff>
    <beam number="1">begin</beam>
    <notations>
     <technical>
      <string>3</string>
      <fret>1</fret>
     </technical>
    </notations>
   </note>
   <note>
    <pitch>
     <step>G</step>
     <octave>3</octave>
    </pitch>
    <duration>1</duration>
    <voice>5</voice>
    <type>eighth</type>
    <accidental>natural</accidental>
    <stem>up</stem>
    <staff>2</staff>
    <beam number="1">end</beam>
    <notations>
     <technical>
      <string>4</string>
      <fret>2</fret>
     </technical>
    </notations>
   </note>
   <note>
    <pitch>
     <step>F</step>
     <octave>4</octave>
    </pitch>
    <duration>1</duration>
    <voice>5</voice>
    <type>eighth</type>
    <stem>down</stem>
    <staff>2</staff>
    <beam number="1">begin</beam>
    <notations>
     <technical>
      <string>2</string>
      <fret>3</fret>
     </technical>
    </notations>
   </note>
   <note>
    <chord/>
    <pitch>
     <step>B</step>
     <octave>3</octave>
    </pitch>
    <duration>1</duration>
    <voice>5</voice>
    <type>eighth</type>
    <stem>down</stem>
    <staff>2</staff>
    <beam number="1">begin</beam>
    <notations>
     <technical>
      <string>3</string>
      <fret>1</fret>
     </technical>
    </notations>
   </note>
   <note>
    <pitch>
     <step>G</step>
     <octave>3</octave>
    </pitch>
    <duration>1</duration>
    <voice>5</voice>
    <type>eighth</type>
    <stem>down</stem>
    <staff>2</staff>
    <beam number="1">end</beam>
    <notations>
     <technical>
      <string>4</string>
      <fret>2</fret>
     </technical>
    </notations>
   </note>
   <barline location="right">
    <repeat times="99" direction="backward"/>
   </barline>
  </measure>
 </part>
</score-partwise>
